<?xml version="1.0" encoding="UTF-8" standalone="no"?>
<!-- Created with Inkscape (http://www.inkscape.org/) -->

<svg
   width="135.46666mm"
   height="135.46669mm"
   viewBox="0 0 135.46666 135.46669"
   version="1.1"
   id="svg1"
   xml:space="preserve"
   xmlns="http://www.w3.org/2000/svg"
   xmlns:svg="http://www.w3.org/2000/svg"><defs
     id="defs1" /><g
     id="layer1"
     transform="translate(-37.041664,-80.697929)"><path
       d="m 85.724998,80.697915 c 8.175625,0 14.816662,6.641042 14.816662,14.816667 V 201.34791 c 0,8.17562 -6.641037,14.81667 -14.816662,14.81667 -7.646458,0 -13.943541,-5.79438 -14.737291,-13.25563 -1.375834,0.37042 -2.831042,0.55563 -4.312709,0.55563 -9.339791,0 -16.933333,-7.59355 -16.933333,-16.93334 0,-1.95791 0.343958,-3.86291 0.9525,-5.60916 -7.990417,-3.01625 -13.6525,-10.74208 -13.6525,-19.79083 0,-8.44021 4.947708,-15.74271 12.117917,-19.12938 -2.301875,-2.88396 -3.65125,-6.53521 -3.65125,-10.50396 0,-8.1227 5.715,-14.89604 13.335,-16.56291 -0.423334,-1.45521 -0.635,-3.01625 -0.635,-4.60375 0,-7.91104 5.450416,-14.578543 12.779375,-16.430627 0.79375,-7.408333 7.090833,-13.202708 14.737291,-13.202708 z m 38.100002,0 c 7.64646,0 13.91708,5.794375 14.73728,13.202708 7.35542,1.852084 12.77938,8.493127 12.77938,16.430627 0,1.5875 -0.21167,3.14854 -0.635,4.60375 7.62,1.64041 13.335,8.44021 13.335,16.56291 0,3.96875 -1.34938,7.62 -3.65125,10.50396 7.17021,3.38667 12.11792,10.68917 12.11792,19.12938 0,9.04875 -5.66209,16.77458 -13.6525,19.79083 0.60854,1.74625 0.9525,3.65125 0.9525,5.60916 0,9.33979 -7.59355,16.93334 -16.93334,16.93334 -1.48166,0 -2.93687,-0.18521 -4.31271,-0.55563 -0.79375,7.46125 -7.09082,13.25563 -14.73728,13.25563 -8.17563,0 -14.81667,-6.64105 -14.81667,-14.81667 V 95.514582 c 0,-8.175625 6.64104,-14.816667 14.81667,-14.816667 z"
       id="path1"
       style="fill:#ffffff;stroke-width:0.264583" /></g></svg>
