<?xml version="1.0" encoding="UTF-8" standalone="no"?>
<!-- Created with Inkscape (http://www.inkscape.org/) -->

<svg
   width="135.50348mm"
   height="135.46669mm"
   viewBox="0 0 135.50348 135.46669"
   version="1.1"
   id="svg1"
   xml:space="preserve"
   xmlns="http://www.w3.org/2000/svg"
   xmlns:svg="http://www.w3.org/2000/svg"><defs
     id="defs1" /><g
     id="layer1"
     transform="translate(-37.02326,-80.697922)"><path
       d="m 104.775,216.16458 a 67.733335,67.733335 0 1 0 0,-135.466665 67.733335,67.733335 0 1 0 0,135.466665 z m 29.89792,-80.16875 -33.86667,33.86667 c -2.487083,2.48708 -6.50875,2.48708 -8.969375,0 L 74.903542,152.92916 c -2.487083,-2.48708 -2.487083,-6.50875 0,-8.96937 2.487083,-2.46063 6.50875,-2.48708 8.969375,0 L 96.308334,156.39521 125.67708,127 c 2.48709,-2.48709 6.50875,-2.48709 8.96938,0 2.46063,2.48708 2.48708,6.50875 0,8.96937 z"
       id="path1"
       style="fill:#ffffff;stroke-width:0.264583" /></g></svg>
