<?xml version="1.0" encoding="UTF-8" standalone="no"?>
<!-- Created with Inkscape (http://www.inkscape.org/) -->

<svg
   width="101.6mm"
   height="135.46669mm"
   viewBox="0 0 101.6 135.46669"
   version="1.1"
   id="svg1"
   xml:space="preserve"
   xmlns="http://www.w3.org/2000/svg"
   xmlns:svg="http://www.w3.org/2000/svg"><defs
     id="defs1" /><g
     id="layer1"
     transform="translate(-53.974999,-80.697929)"><path
       d="m 104.775,80.697915 c -11.059583,0 -20.47875,7.064375 -23.944792,16.933333 h -9.921875 c -9.339791,0 -16.933333,7.593542 -16.933333,16.933332 v 84.66666 c 0,9.33979 7.593542,16.93334 16.933333,16.93334 h 67.733337 c 9.33979,0 16.93333,-7.59355 16.93333,-16.93334 v -84.66666 c 0,-9.33979 -7.59354,-16.933332 -16.93333,-16.933332 h -9.92188 C 125.25375,87.76229 115.83458,80.697915 104.775,80.697915 Z m 0,16.933333 a 8.466667,8.466667 0 1 1 0,16.933332 8.466667,8.466667 0 1 1 0,-16.933332 z M 83.608333,131.49791 h 42.333337 c 2.32833,0 4.23333,1.905 4.23333,4.23334 0,2.32833 -1.905,4.23333 -4.23333,4.23333 H 83.608333 c -2.328333,0 -4.233333,-1.905 -4.233333,-4.23333 0,-2.32834 1.905,-4.23334 4.233333,-4.23334 z"
       id="path1"
       style="fill:#ffffff;stroke-width:0.264583" /></g></svg>
