<?xml version="1.0" encoding="UTF-8" standalone="no"?>
<!-- Created with Inkscape (http://www.inkscape.org/) -->

<svg
   width="135.46004mm"
   height="135.48653mm"
   viewBox="0 0 135.46004 135.48653"
   version="1.1"
   id="svg1"
   xml:space="preserve"
   xmlns="http://www.w3.org/2000/svg"
   xmlns:svg="http://www.w3.org/2000/svg"><defs
     id="defs1" /><g
     id="layer1"
     transform="translate(-37.044974,-80.687996)"><path
       d="m 147.11165,135.72133 c 0,12.14437 -3.9423,23.36271 -10.58334,32.46437 l 33.49625,33.52272 c 3.30729,3.30729 3.30729,8.67833 0,11.98562 -3.30729,3.30729 -8.67833,3.30729 -11.98562,0 l -33.49626,-33.52271 c -9.10166,6.6675 -20.32,10.58334 -32.464371,10.58334 -30.400625,0 -55.033333,-24.63272 -55.033333,-55.03334 0,-30.40063 24.632708,-55.033334 55.033333,-55.033334 30.400621,0 55.033341,24.632704 55.033341,55.033334 z m -55.033341,38.1 a 38.1,38.1 0 1 0 0,-76.200001 38.1,38.1 0 1 0 0,76.200001 z"
       id="path1"
       style="fill:#ffffff;stroke-width:0.264583" /></g></svg>
